<svg width="776" height="202" viewBox="0 0 776 202" fill="none" xmlns="http://www.w3.org/2000/svg">
<g filter="url(#filter0_d_286_3)">
<mask id="path-1-outside-1_286_3" maskUnits="userSpaceOnUse" x="-21" y="-30" width="822" height="248" fill="black">
<rect fill="white" x="-21" y="-30" width="822" height="248"/>
<path d="M133.2 153.2C132.8 154.133 132.6 155.067 132.6 156C132.6 157.067 132.867 157.933 133.4 158.6C134.067 159.133 134.867 159.4 135.8 159.4C137 159.4 137.933 159.133 138.6 158.6C139.4 157.933 140.2 157.067 141 156C141.933 154.933 142.667 154.4 143.2 154.4C144 154.4 144.6 155 145 156.2C145.533 157.267 145.8 158.467 145.8 159.8C145.8 164.067 144.333 168.4 141.4 172.8C138.467 177.067 134.333 180.6 129 183.4C123.8 186.2 117.933 187.6 111.4 187.6C100.333 187.6 92.2 185 87 179.8C81.8 174.467 79.2 167.733 79.2 159.6C79.2 156.4 79.6 152.6 80.4 148.2C71.4667 157.4 61.1333 162 49.4 162C37.4 162 27.6667 158.333 20.2 151C12.8667 143.667 9.2 133.867 9.2 121.6C9.2 109.867 11.5333 99.3333 16.2 90C20.8667 80.6667 27.3333 73.4 35.6 68.2C43.8667 63 53.2 60.4 63.6 60.4C70.8 60.4 76.8 61.4667 81.6 63.6C86.4 65.7333 89.8667 68.2667 92 71.2C94.1333 74.1333 95.2 76.8667 95.2 79.4C95.2 80.8667 94.8667 81.9333 94.2 82.6C93.5333 83.1333 92.2667 83.4 90.4 83.4C81.6 83.4 74.5333 86.5333 69.2 92.8C63.8667 98.9333 61.2 107.2 61.2 117.6C61.2 127.6 65 132.6 72.6 132.6C79.5333 132.6 85.2 127.267 89.6 116.6L101.8 78.6C103.267 73.4 108.2 69.4 116.6 66.6C125 63.6667 133.533 62.2 142.2 62.2C147.933 62.2 151.867 63.1333 154 65C156.133 66.7333 157.2 69.0667 157.2 72C157.2 73.3333 156.733 75.5333 155.8 78.6L133.2 153.2ZM218.005 62.2C223.871 62.2 227.805 63.1333 229.805 65C231.805 66.7333 232.805 69.0667 232.805 72C232.805 73.4667 232.471 75.6667 231.805 78.6L209.005 153.2C208.605 154.133 208.405 155.067 208.405 156C208.405 157.067 208.671 157.933 209.205 158.6C209.871 159.133 210.738 159.4 211.805 159.4C212.871 159.4 213.738 159.133 214.405 158.6C215.205 158.067 216.071 157.267 217.005 156.2C217.938 155 218.671 154.4 219.205 154.4C220.005 154.4 220.605 154.933 221.005 156C221.538 157.067 221.805 158.333 221.805 159.8C221.805 164.067 220.338 168.4 217.405 172.8C214.471 177.067 210.338 180.6 205.005 183.4C199.805 186.2 193.871 187.6 187.205 187.6C176.271 187.6 168.138 185 162.805 179.8C157.605 174.467 155.005 167.733 155.005 159.6C155.005 152.667 157.005 143.2 161.005 131.2L177.605 78.6C179.205 73.4 184.138 69.4 192.405 66.6C200.805 63.6667 209.338 62.2 218.005 62.2ZM360.581 153.2C360.315 153.867 360.181 154.8 360.181 156C360.181 158.267 361.181 159.4 363.181 159.4C364.381 159.4 365.381 159.133 366.181 158.6C366.981 157.933 367.848 157.067 368.781 156C369.715 154.933 370.381 154.4 370.781 154.4C371.448 154.4 372.048 155 372.581 156.2C373.115 157.267 373.381 158.467 373.381 159.8C373.381 164.067 371.915 168.4 368.981 172.8C366.048 177.067 361.915 180.6 356.581 183.4C351.381 186.2 345.515 187.6 338.981 187.6C327.915 187.6 319.715 185 314.381 179.8C309.181 174.467 306.581 167.733 306.581 159.6C306.581 153.067 308.648 143.6 312.781 131.2L317.381 116.2C316.315 116.067 314.715 116 312.581 116C305.115 116 298.648 118.2 293.181 122.6C287.715 126.867 283.981 132.467 281.981 139.4C281.048 142.333 280.581 145.2 280.581 148C280.581 151.467 281.315 154.267 282.781 156.4C284.381 158.4 286.181 159.4 288.181 159.4C289.248 159.4 290.181 159.133 290.981 158.6C291.781 158.067 292.715 157.267 293.781 156.2C294.981 155 295.981 154.4 296.781 154.4C298.648 154.4 299.581 156.133 299.581 159.6C299.581 161.733 299.181 164 298.381 166.4C296.515 172.8 292.715 177.933 286.981 181.8C281.381 185.667 274.848 187.6 267.381 187.6C260.315 187.6 253.981 186.067 248.381 183C242.915 179.8 238.648 175.4 235.581 169.8C232.515 164.2 230.981 157.8 230.981 150.6C230.981 145.533 231.781 140.333 233.381 135C236.981 123.267 243.848 114.067 253.981 107.4C264.115 100.733 277.181 97.4 293.181 97.4C301.448 97.4 311.048 98.8 321.981 101.6L329.181 78.6C330.915 73.4 335.915 69.4 344.181 66.6C352.448 63.6667 360.915 62.2 369.581 62.2C375.448 62.2 379.381 63.1333 381.381 65C383.515 66.7333 384.581 69.0667 384.581 72C384.581 74.2667 384.181 76.4667 383.381 78.6L360.581 153.2ZM518.944 153.2C518.677 154.533 518.544 155.4 518.544 155.8C518.544 158.2 519.677 159.4 521.944 159.4C523.01 159.4 523.944 159.133 524.744 158.6C525.544 157.933 526.344 157.067 527.144 156C528.077 154.933 528.81 154.4 529.344 154.4C530.01 154.4 530.61 155 531.144 156.2C531.81 157.267 532.144 158.467 532.144 159.8C532.144 164.067 530.61 168.4 527.544 172.8C524.61 177.067 520.477 180.6 515.144 183.4C509.944 186.2 504.077 187.6 497.544 187.6C487.41 187.6 479.744 185.4 474.544 181C469.344 176.6 466.277 170.8 465.344 163.6C446.944 162.533 432.544 155.6 422.144 142.8C418.277 143.733 413.877 144.2 408.944 144.2C403.477 144.2 398.544 143.267 394.144 141.4C389.744 139.533 386.277 137 383.744 133.8C381.21 130.6 379.944 127.2 379.944 123.6C379.944 119.2 381.077 116.067 383.344 114.2C385.61 112.2 388.41 111.2 391.744 111.2C393.744 111.2 395.61 111.533 397.344 112.2C399.077 112.867 401.01 113.867 403.144 115.2C406.877 112.4 409.677 109.533 411.544 106.6C413.544 103.533 414.544 100.933 414.544 98.8C414.544 97.2 414.077 95.9333 413.144 95C412.344 94.0667 411.144 93.6 409.544 93.6C407.81 93.6 406.077 94.1333 404.344 95.2C402.61 96.2667 401.477 96.8 400.944 96.8C399.477 96.8 398.744 95.6667 398.744 93.4C398.744 91.9333 399.01 90.4 399.544 88.8C401.944 80.9333 406.677 74.4 413.744 69.2C420.81 64 429.21 61.4 438.944 61.4C448.677 61.4 456.144 64.1333 461.344 69.6C466.544 75.0667 469.144 82.0667 469.144 90.6C469.144 93.2667 468.677 96.7333 467.744 101C466.01 107.933 462.61 114.6 457.544 121C452.477 127.4 446.21 132.6 438.744 136.6C444.744 139.133 450.077 140.4 454.744 140.4C459.41 140.4 463.21 139.067 466.144 136.4C469.21 133.733 471.61 129.867 473.344 124.8L487.744 78.6C489.477 73.4 494.477 69.4 502.744 66.6C511.01 63.6667 519.477 62.2 528.144 62.2C534.01 62.2 537.944 63.1333 539.944 65C542.077 66.7333 543.144 69.0667 543.144 72C543.144 73.7333 542.744 75.9333 541.944 78.6L518.944 153.2ZM557.133 0.799989C572.733 0.799989 585.599 2.93332 595.733 7.19999C605.999 11.3333 613.466 16.9333 618.133 24C622.933 31.0667 625.333 38.8667 625.333 47.4C625.333 52.0667 624.599 56.9333 623.133 62L595.333 153.2C594.933 154.133 594.733 155.067 594.733 156C594.733 157.067 594.999 157.933 595.533 158.6C596.199 159.133 597.066 159.4 598.133 159.4C599.199 159.4 600.066 159.133 600.733 158.6C601.533 158.067 602.399 157.267 603.333 156.2C604.266 155 604.999 154.4 605.533 154.4C606.333 154.4 606.933 154.933 607.333 156C607.866 157.067 608.133 158.333 608.133 159.8C608.133 164.067 606.666 168.4 603.733 172.8C600.799 177.067 596.666 180.6 591.333 183.4C586.133 186.2 580.199 187.6 573.533 187.6C562.599 187.6 554.466 185 549.133 179.8C543.933 174.467 541.333 167.733 541.333 159.6C541.333 156.133 541.799 152.267 542.733 148C543.666 143.6 545.199 138 547.333 131.2L573.133 47.2C574.333 42.9333 574.933 39.1333 574.933 35.8C574.933 29.5333 573.066 24.8 569.333 21.6C565.733 18.2667 561.266 16.6 555.933 16.6C551.399 16.6 547.599 17.8667 544.533 20.4C541.599 22.9333 540.133 26.3333 540.133 30.6C540.133 32.6 540.666 34.2 541.733 35.4C542.799 36.6 544.266 37.2 546.133 37.2C547.999 37.2 549.733 36.6 551.333 35.4C552.933 34.0667 553.999 33.4 554.533 33.4C555.733 33.4 556.333 34.4 556.333 36.4C556.333 37.2 556.133 38.3333 555.733 39.8C552.533 50.0667 543.266 55.2 527.933 55.2C518.733 55.2 511.599 53.2667 506.533 49.4C501.333 45.4 498.733 40.2667 498.733 34C498.733 31.6 499.133 29.2 499.933 26.8C502.066 18.9333 507.999 12.6667 517.733 7.99999C527.466 3.19999 540.599 0.799989 557.133 0.799989ZM746.909 153.2C746.643 153.867 746.509 154.8 746.509 156C746.509 158.267 747.509 159.4 749.509 159.4C750.709 159.4 751.709 159.133 752.509 158.6C753.309 157.933 754.176 157.067 755.109 156C756.043 154.933 756.709 154.4 757.109 154.4C757.776 154.4 758.376 155 758.909 156.2C759.443 157.267 759.709 158.467 759.709 159.8C759.709 164.067 758.243 168.4 755.309 172.8C752.376 177.067 748.243 180.6 742.909 183.4C737.709 186.2 731.843 187.6 725.309 187.6C714.243 187.6 706.043 185 700.709 179.8C695.509 174.467 692.909 167.733 692.909 159.6C692.909 153.067 694.976 143.6 699.109 131.2L703.709 116.2C702.643 116.067 701.043 116 698.909 116C691.443 116 684.976 118.2 679.509 122.6C674.043 126.867 670.309 132.467 668.309 139.4C667.376 142.333 666.909 145.2 666.909 148C666.909 151.467 667.643 154.267 669.109 156.4C670.709 158.4 672.509 159.4 674.509 159.4C675.576 159.4 676.509 159.133 677.309 158.6C678.109 158.067 679.043 157.267 680.109 156.2C681.309 155 682.309 154.4 683.109 154.4C684.976 154.4 685.909 156.133 685.909 159.6C685.909 161.733 685.509 164 684.709 166.4C682.843 172.8 679.043 177.933 673.309 181.8C667.709 185.667 661.176 187.6 653.709 187.6C646.643 187.6 640.309 186.067 634.709 183C629.243 179.8 624.976 175.4 621.909 169.8C618.843 164.2 617.309 157.8 617.309 150.6C617.309 145.533 618.109 140.333 619.709 135C623.309 123.267 630.176 114.067 640.309 107.4C650.443 100.733 663.509 97.4 679.509 97.4C687.776 97.4 697.376 98.8 708.309 101.6L715.509 78.6C717.243 73.4 722.243 69.4 730.509 66.6C738.776 63.6667 747.243 62.2 755.909 62.2C761.776 62.2 765.709 63.1333 767.709 65C769.843 66.7333 770.909 69.0667 770.909 72C770.909 74.2667 770.509 76.4667 769.709 78.6L746.909 153.2Z"/>
</mask>
<path d="M133.2 153.2C132.8 154.133 132.6 155.067 132.6 156C132.6 157.067 132.867 157.933 133.4 158.6C134.067 159.133 134.867 159.4 135.8 159.4C137 159.4 137.933 159.133 138.6 158.6C139.4 157.933 140.2 157.067 141 156C141.933 154.933 142.667 154.4 143.2 154.4C144 154.4 144.6 155 145 156.2C145.533 157.267 145.8 158.467 145.8 159.8C145.8 164.067 144.333 168.4 141.4 172.8C138.467 177.067 134.333 180.6 129 183.4C123.8 186.2 117.933 187.6 111.4 187.6C100.333 187.6 92.2 185 87 179.8C81.8 174.467 79.2 167.733 79.2 159.6C79.2 156.4 79.6 152.6 80.4 148.2C71.4667 157.4 61.1333 162 49.4 162C37.4 162 27.6667 158.333 20.2 151C12.8667 143.667 9.2 133.867 9.2 121.6C9.2 109.867 11.5333 99.3333 16.2 90C20.8667 80.6667 27.3333 73.4 35.6 68.2C43.8667 63 53.2 60.4 63.6 60.4C70.8 60.4 76.8 61.4667 81.6 63.6C86.4 65.7333 89.8667 68.2667 92 71.2C94.1333 74.1333 95.2 76.8667 95.2 79.4C95.2 80.8667 94.8667 81.9333 94.2 82.6C93.5333 83.1333 92.2667 83.4 90.4 83.4C81.6 83.4 74.5333 86.5333 69.2 92.8C63.8667 98.9333 61.2 107.2 61.2 117.6C61.2 127.6 65 132.6 72.6 132.6C79.5333 132.6 85.2 127.267 89.6 116.6L101.8 78.6C103.267 73.4 108.2 69.4 116.6 66.6C125 63.6667 133.533 62.2 142.2 62.2C147.933 62.2 151.867 63.1333 154 65C156.133 66.7333 157.2 69.0667 157.2 72C157.2 73.3333 156.733 75.5333 155.8 78.6L133.2 153.2ZM218.005 62.2C223.871 62.2 227.805 63.1333 229.805 65C231.805 66.7333 232.805 69.0667 232.805 72C232.805 73.4667 232.471 75.6667 231.805 78.6L209.005 153.2C208.605 154.133 208.405 155.067 208.405 156C208.405 157.067 208.671 157.933 209.205 158.6C209.871 159.133 210.738 159.4 211.805 159.4C212.871 159.4 213.738 159.133 214.405 158.6C215.205 158.067 216.071 157.267 217.005 156.2C217.938 155 218.671 154.4 219.205 154.4C220.005 154.4 220.605 154.933 221.005 156C221.538 157.067 221.805 158.333 221.805 159.8C221.805 164.067 220.338 168.4 217.405 172.8C214.471 177.067 210.338 180.6 205.005 183.4C199.805 186.2 193.871 187.6 187.205 187.6C176.271 187.6 168.138 185 162.805 179.8C157.605 174.467 155.005 167.733 155.005 159.6C155.005 152.667 157.005 143.2 161.005 131.2L177.605 78.6C179.205 73.4 184.138 69.4 192.405 66.6C200.805 63.6667 209.338 62.2 218.005 62.2ZM360.581 153.2C360.315 153.867 360.181 154.8 360.181 156C360.181 158.267 361.181 159.4 363.181 159.4C364.381 159.4 365.381 159.133 366.181 158.6C366.981 157.933 367.848 157.067 368.781 156C369.715 154.933 370.381 154.4 370.781 154.4C371.448 154.4 372.048 155 372.581 156.2C373.115 157.267 373.381 158.467 373.381 159.8C373.381 164.067 371.915 168.4 368.981 172.8C366.048 177.067 361.915 180.6 356.581 183.4C351.381 186.2 345.515 187.6 338.981 187.6C327.915 187.6 319.715 185 314.381 179.8C309.181 174.467 306.581 167.733 306.581 159.6C306.581 153.067 308.648 143.6 312.781 131.2L317.381 116.2C316.315 116.067 314.715 116 312.581 116C305.115 116 298.648 118.2 293.181 122.6C287.715 126.867 283.981 132.467 281.981 139.4C281.048 142.333 280.581 145.2 280.581 148C280.581 151.467 281.315 154.267 282.781 156.4C284.381 158.4 286.181 159.4 288.181 159.4C289.248 159.4 290.181 159.133 290.981 158.6C291.781 158.067 292.715 157.267 293.781 156.2C294.981 155 295.981 154.4 296.781 154.4C298.648 154.4 299.581 156.133 299.581 159.6C299.581 161.733 299.181 164 298.381 166.4C296.515 172.8 292.715 177.933 286.981 181.8C281.381 185.667 274.848 187.6 267.381 187.6C260.315 187.6 253.981 186.067 248.381 183C242.915 179.8 238.648 175.4 235.581 169.8C232.515 164.2 230.981 157.8 230.981 150.6C230.981 145.533 231.781 140.333 233.381 135C236.981 123.267 243.848 114.067 253.981 107.4C264.115 100.733 277.181 97.4 293.181 97.4C301.448 97.4 311.048 98.8 321.981 101.6L329.181 78.6C330.915 73.4 335.915 69.4 344.181 66.6C352.448 63.6667 360.915 62.2 369.581 62.2C375.448 62.2 379.381 63.1333 381.381 65C383.515 66.7333 384.581 69.0667 384.581 72C384.581 74.2667 384.181 76.4667 383.381 78.6L360.581 153.2ZM518.944 153.2C518.677 154.533 518.544 155.4 518.544 155.8C518.544 158.2 519.677 159.4 521.944 159.4C523.01 159.4 523.944 159.133 524.744 158.6C525.544 157.933 526.344 157.067 527.144 156C528.077 154.933 528.81 154.4 529.344 154.4C530.01 154.4 530.61 155 531.144 156.2C531.81 157.267 532.144 158.467 532.144 159.8C532.144 164.067 530.61 168.4 527.544 172.8C524.61 177.067 520.477 180.6 515.144 183.4C509.944 186.2 504.077 187.6 497.544 187.6C487.41 187.6 479.744 185.4 474.544 181C469.344 176.6 466.277 170.8 465.344 163.6C446.944 162.533 432.544 155.6 422.144 142.8C418.277 143.733 413.877 144.2 408.944 144.2C403.477 144.2 398.544 143.267 394.144 141.4C389.744 139.533 386.277 137 383.744 133.8C381.21 130.6 379.944 127.2 379.944 123.6C379.944 119.2 381.077 116.067 383.344 114.2C385.61 112.2 388.41 111.2 391.744 111.2C393.744 111.2 395.61 111.533 397.344 112.2C399.077 112.867 401.01 113.867 403.144 115.2C406.877 112.4 409.677 109.533 411.544 106.6C413.544 103.533 414.544 100.933 414.544 98.8C414.544 97.2 414.077 95.9333 413.144 95C412.344 94.0667 411.144 93.6 409.544 93.6C407.81 93.6 406.077 94.1333 404.344 95.2C402.61 96.2667 401.477 96.8 400.944 96.8C399.477 96.8 398.744 95.6667 398.744 93.4C398.744 91.9333 399.01 90.4 399.544 88.8C401.944 80.9333 406.677 74.4 413.744 69.2C420.81 64 429.21 61.4 438.944 61.4C448.677 61.4 456.144 64.1333 461.344 69.6C466.544 75.0667 469.144 82.0667 469.144 90.6C469.144 93.2667 468.677 96.7333 467.744 101C466.01 107.933 462.61 114.6 457.544 121C452.477 127.4 446.21 132.6 438.744 136.6C444.744 139.133 450.077 140.4 454.744 140.4C459.41 140.4 463.21 139.067 466.144 136.4C469.21 133.733 471.61 129.867 473.344 124.8L487.744 78.6C489.477 73.4 494.477 69.4 502.744 66.6C511.01 63.6667 519.477 62.2 528.144 62.2C534.01 62.2 537.944 63.1333 539.944 65C542.077 66.7333 543.144 69.0667 543.144 72C543.144 73.7333 542.744 75.9333 541.944 78.6L518.944 153.2ZM557.133 0.799989C572.733 0.799989 585.599 2.93332 595.733 7.19999C605.999 11.3333 613.466 16.9333 618.133 24C622.933 31.0667 625.333 38.8667 625.333 47.4C625.333 52.0667 624.599 56.9333 623.133 62L595.333 153.2C594.933 154.133 594.733 155.067 594.733 156C594.733 157.067 594.999 157.933 595.533 158.6C596.199 159.133 597.066 159.4 598.133 159.4C599.199 159.4 600.066 159.133 600.733 158.6C601.533 158.067 602.399 157.267 603.333 156.2C604.266 155 604.999 154.4 605.533 154.4C606.333 154.4 606.933 154.933 607.333 156C607.866 157.067 608.133 158.333 608.133 159.8C608.133 164.067 606.666 168.4 603.733 172.8C600.799 177.067 596.666 180.6 591.333 183.4C586.133 186.2 580.199 187.6 573.533 187.6C562.599 187.6 554.466 185 549.133 179.8C543.933 174.467 541.333 167.733 541.333 159.6C541.333 156.133 541.799 152.267 542.733 148C543.666 143.6 545.199 138 547.333 131.2L573.133 47.2C574.333 42.9333 574.933 39.1333 574.933 35.8C574.933 29.5333 573.066 24.8 569.333 21.6C565.733 18.2667 561.266 16.6 555.933 16.6C551.399 16.6 547.599 17.8667 544.533 20.4C541.599 22.9333 540.133 26.3333 540.133 30.6C540.133 32.6 540.666 34.2 541.733 35.4C542.799 36.6 544.266 37.2 546.133 37.2C547.999 37.2 549.733 36.6 551.333 35.4C552.933 34.0667 553.999 33.4 554.533 33.4C555.733 33.4 556.333 34.4 556.333 36.4C556.333 37.2 556.133 38.3333 555.733 39.8C552.533 50.0667 543.266 55.2 527.933 55.2C518.733 55.2 511.599 53.2667 506.533 49.4C501.333 45.4 498.733 40.2667 498.733 34C498.733 31.6 499.133 29.2 499.933 26.8C502.066 18.9333 507.999 12.6667 517.733 7.99999C527.466 3.19999 540.599 0.799989 557.133 0.799989ZM746.909 153.2C746.643 153.867 746.509 154.8 746.509 156C746.509 158.267 747.509 159.4 749.509 159.4C750.709 159.4 751.709 159.133 752.509 158.6C753.309 157.933 754.176 157.067 755.109 156C756.043 154.933 756.709 154.4 757.109 154.4C757.776 154.4 758.376 155 758.909 156.2C759.443 157.267 759.709 158.467 759.709 159.8C759.709 164.067 758.243 168.4 755.309 172.8C752.376 177.067 748.243 180.6 742.909 183.4C737.709 186.2 731.843 187.6 725.309 187.6C714.243 187.6 706.043 185 700.709 179.8C695.509 174.467 692.909 167.733 692.909 159.6C692.909 153.067 694.976 143.6 699.109 131.2L703.709 116.2C702.643 116.067 701.043 116 698.909 116C691.443 116 684.976 118.2 679.509 122.6C674.043 126.867 670.309 132.467 668.309 139.4C667.376 142.333 666.909 145.2 666.909 148C666.909 151.467 667.643 154.267 669.109 156.4C670.709 158.4 672.509 159.4 674.509 159.4C675.576 159.4 676.509 159.133 677.309 158.6C678.109 158.067 679.043 157.267 680.109 156.2C681.309 155 682.309 154.4 683.109 154.4C684.976 154.4 685.909 156.133 685.909 159.6C685.909 161.733 685.509 164 684.709 166.4C682.843 172.8 679.043 177.933 673.309 181.8C667.709 185.667 661.176 187.6 653.709 187.6C646.643 187.6 640.309 186.067 634.709 183C629.243 179.8 624.976 175.4 621.909 169.8C618.843 164.2 617.309 157.8 617.309 150.6C617.309 145.533 618.109 140.333 619.709 135C623.309 123.267 630.176 114.067 640.309 107.4C650.443 100.733 663.509 97.4 679.509 97.4C687.776 97.4 697.376 98.8 708.309 101.6L715.509 78.6C717.243 73.4 722.243 69.4 730.509 66.6C738.776 63.6667 747.243 62.2 755.909 62.2C761.776 62.2 765.709 63.1333 767.709 65C769.843 66.7333 770.909 69.0667 770.909 72C770.909 74.2667 770.509 76.4667 769.709 78.6L746.909 153.2Z" fill="black"/>
<path d="M133.2 153.2L160.774 165.017L161.429 163.489L161.911 161.898L133.2 153.2ZM133.4 158.6L109.974 177.341L112.056 179.944L114.659 182.026L133.4 158.6ZM138.6 158.6L157.341 182.026L157.575 181.839L157.805 181.647L138.6 158.6ZM141 156L118.423 136.245L117.678 137.096L117 138L141 156ZM145 156.2L116.539 165.687L117.214 167.709L118.167 169.616L145 156.2ZM141.4 172.8L166.121 189.796L166.243 189.619L166.362 189.441L141.4 172.8ZM129 183.4L115.055 156.838L114.916 156.911L114.777 156.986L129 183.4ZM87 179.8L65.52 200.743L65.6525 200.879L65.7868 201.013L87 179.8ZM80.4 148.2L109.916 153.567L127.55 56.5779L58.8772 127.301L80.4 148.2ZM20.2 151L-1.0132 172.213L-0.917651 172.309L-0.821241 172.403L20.2 151ZM16.2 90L-10.6328 76.5836L-10.6328 76.5836L16.2 90ZM35.6 68.2L19.6265 42.8062L19.6265 42.8062L35.6 68.2ZM81.6 63.6L93.7842 36.1857L93.7841 36.1856L81.6 63.6ZM92 71.2L116.262 53.5548L116.262 53.5548L92 71.2ZM94.2 82.6L112.941 106.026L114.238 104.988L115.413 103.813L94.2 82.6ZM69.2 92.8L91.8382 112.485L91.9428 112.365L92.0462 112.244L69.2 92.8ZM89.6 116.6L117.333 128.04L117.794 126.922L118.164 125.771L89.6 116.6ZM101.8 78.6L130.364 87.7705L130.528 87.2599L130.673 86.7438L101.8 78.6ZM116.6 66.6L126.087 95.0605L126.289 94.993L126.49 94.9227L116.6 66.6ZM154 65L134.245 87.5773L134.657 87.938L135.082 88.2834L154 65ZM155.8 78.6L127.1 69.8652L127.094 69.8835L127.089 69.9019L155.8 78.6ZM105.626 141.383C103.767 145.719 102.6 150.658 102.6 156H162.6C162.6 159.475 161.833 162.548 160.774 165.017L105.626 141.383ZM102.6 156C102.6 162.14 104.213 170.14 109.974 177.341L156.826 139.859C161.52 145.727 162.6 151.993 162.6 156H102.6ZM114.659 182.026C121.151 187.219 128.731 189.4 135.8 189.4V129.4C141.002 129.4 146.983 131.047 152.141 135.174L114.659 182.026ZM135.8 189.4C141.099 189.4 149.565 188.247 157.341 182.026L119.859 135.174C126.301 130.02 132.901 129.4 135.8 129.4V189.4ZM157.805 181.647C160.811 179.142 163.171 176.438 165 174L117 138C117.229 137.695 117.989 136.725 119.395 135.553L157.805 181.647ZM163.577 175.755C163.297 176.076 162.048 177.496 159.895 179.062C158.769 179.881 156.921 181.089 154.404 182.149C151.895 183.206 148.038 184.4 143.2 184.4V124.4C133.516 124.4 126.871 128.89 124.605 130.538C121.718 132.637 119.637 134.858 118.423 136.245L163.577 175.755ZM143.2 184.4C135.123 184.4 127.984 181.011 123.037 176.063C118.826 171.853 117.149 167.515 116.539 165.687L173.461 146.713C171.754 141.594 163.928 124.4 143.2 124.4V184.4ZM118.167 169.616C116.383 166.047 115.8 162.568 115.8 159.8H175.8C175.8 154.365 174.684 148.486 171.833 142.784L118.167 169.616ZM115.8 159.8C115.8 158.434 116.044 157.339 116.284 156.632C116.509 155.966 116.672 155.808 116.438 156.159L166.362 189.441C171.79 181.298 175.8 171.269 175.8 159.8H115.8ZM116.679 155.804C116.767 155.676 116.785 155.694 116.607 155.846C116.415 156.011 115.948 156.369 115.055 156.838L142.945 209.962C151.887 205.267 160.007 198.69 166.121 189.796L116.679 155.804ZM114.777 156.986C114.398 157.19 113.506 157.6 111.4 157.6V217.6C122.36 217.6 133.202 215.21 143.223 209.814L114.777 156.986ZM111.4 157.6C108.101 157.6 106.523 157.199 106.135 157.075C105.888 156.996 106.925 157.298 108.213 158.587L65.7868 201.013C78.9037 214.13 96.3413 217.6 111.4 217.6V157.6ZM108.48 158.857C108.519 158.896 108.637 159.028 108.782 159.252C108.928 159.477 109.049 159.719 109.136 159.943C109.222 160.165 109.242 160.289 109.239 160.269C109.234 160.244 109.2 160.034 109.2 159.6H49.2C49.2 174.77 54.3305 189.267 65.52 200.743L108.48 158.857ZM109.2 159.6C109.2 158.75 109.322 156.836 109.916 153.567L50.8839 142.833C49.8783 148.364 49.2 154.05 49.2 159.6H109.2ZM58.8772 127.301C55.0127 131.281 52.2268 132 49.4 132V192C70.0399 192 87.9207 183.519 101.923 169.099L58.8772 127.301ZM49.4 132C44.0151 132 42.2467 130.604 41.2212 129.597L-0.821241 172.403C13.0866 186.063 30.7849 192 49.4 192V132ZM41.4132 129.787C40.7229 129.096 39.2 127.474 39.2 121.6H-20.8C-20.8 140.259 -14.9895 158.237 -1.0132 172.213L41.4132 129.787ZM39.2 121.6C39.2 113.939 40.6956 108.091 43.0328 103.416L-10.6328 76.5836C-17.629 90.5759 -20.8 105.794 -20.8 121.6H39.2ZM43.0328 103.416C45.4189 98.6442 48.2748 95.6688 51.5735 93.5938L19.6265 42.8062C6.39187 51.1312 -3.68558 62.6891 -10.6328 76.5836L43.0328 103.416ZM51.5735 93.5938C54.7416 91.601 58.4689 90.4 63.6 90.4V30.4C47.9311 30.4 32.9918 34.399 19.6265 42.8062L51.5735 93.5938ZM63.6 90.4C68.0647 90.4 69.5941 91.0935 69.4159 91.0143L93.7841 36.1856C84.0059 31.8398 73.5353 30.4 63.6 30.4V90.4ZM69.4158 91.0143C70.2832 91.3998 70.4174 91.5541 70.0995 91.3217C69.7667 91.0785 68.8046 90.3118 67.7379 88.8451L116.262 53.5548C109.946 44.8698 101.374 39.5587 93.7842 36.1857L69.4158 91.0143ZM67.7379 88.8451C67.6945 88.7854 65.2 85.4162 65.2 79.4H125.2C125.2 68.3171 120.572 59.4812 116.262 53.5548L67.7379 88.8451ZM65.2 79.4C65.2 77.2149 65.5793 68.7943 72.9868 61.3868L115.413 103.813C124.154 95.0724 125.2 84.5185 125.2 79.4H65.2ZM75.4591 59.174C80.1961 55.3844 84.7728 54.2218 86.5697 53.8435C88.6431 53.407 90.083 53.4 90.4 53.4V113.4C92.5837 113.4 95.5902 113.26 98.9303 112.556C101.994 111.912 107.537 110.349 112.941 106.026L75.4591 59.174ZM90.4 53.4C73.4996 53.4 57.8221 59.8812 46.3538 73.3564L92.0462 112.244C92.0522 112.236 91.926 112.384 91.6482 112.595C91.3649 112.809 91.024 113.014 90.6601 113.175C90.3003 113.335 90.0372 113.399 89.9371 113.419C89.8467 113.437 89.9817 113.4 90.4 113.4V53.4ZM46.5618 73.1146C35.276 86.0933 31.2 102.042 31.2 117.6H91.2C91.2 114.929 91.5455 113.448 91.7513 112.81C91.9276 112.264 92.0085 112.289 91.8382 112.485L46.5618 73.1146ZM31.2 117.6C31.2 125.548 32.5614 136.998 40.1651 147.002C48.9505 158.562 61.6282 162.6 72.6 162.6V102.6C73.953 102.6 76.5466 102.822 79.6623 104.189C82.9548 105.633 85.826 107.923 87.9349 110.698C91.7386 115.702 91.2 119.652 91.2 117.6H31.2ZM72.6 162.6C98.6236 162.6 111.695 141.709 117.333 128.04L61.8668 105.16C60.5749 108.292 60.0937 108.067 61.4891 106.754C62.3099 105.981 63.7511 104.869 65.8685 103.973C68.0442 103.052 70.3714 102.6 72.6 102.6V162.6ZM118.164 125.771L130.364 87.7705L73.236 69.4294L61.036 107.429L118.164 125.771ZM130.673 86.7438C129.445 91.098 126.971 93.805 125.494 95.0027C124.294 95.9759 124.059 95.7365 126.087 95.0605L107.113 38.1395C95.4039 42.0426 78.4654 50.8184 72.9265 70.4562L130.673 86.7438ZM126.49 94.9227C131.797 93.0697 136.991 92.2 142.2 92.2V32.2C130.076 32.2 118.203 34.2637 106.71 38.2772L126.49 94.9227ZM142.2 92.2C143.62 92.2 143.551 92.3332 142.524 92.0895C141.636 91.8789 138.083 90.9356 134.245 87.5773L173.755 42.4227C162.781 32.8205 148.904 32.2 142.2 32.2V92.2ZM135.082 88.2834C132.827 86.4509 130.637 83.8516 129.116 80.5228C127.62 77.2509 127.2 74.2216 127.2 72H187.2C187.2 60.7289 182.585 49.5715 172.918 41.7166L135.082 88.2834ZM127.2 72C127.2 70.6675 127.31 69.6916 127.371 69.2344C127.436 68.7372 127.498 68.4486 127.503 68.4249C127.506 68.4085 127.411 68.8428 127.1 69.8652L184.5 87.3348C185.425 84.2952 187.2 78.2602 187.2 72H127.2ZM127.089 69.9019L104.489 144.502L161.911 161.898L184.511 87.2981L127.089 69.9019ZM229.805 65L209.335 86.9316L209.739 87.3087L210.157 87.6707L229.805 65ZM231.805 78.6L260.495 87.3685L260.815 86.3189L261.059 85.2486L231.805 78.6ZM209.005 153.2L236.579 165.018L237.219 163.523L237.695 161.969L209.005 153.2ZM209.205 158.6L185.779 177.341L187.861 179.944L190.464 182.026L209.205 158.6ZM214.405 158.6L197.764 133.638L196.68 134.361L195.664 135.174L214.405 158.6ZM217.005 156.2L239.582 175.955L240.153 175.303L240.685 174.618L217.005 156.2ZM221.005 156L192.915 166.534L193.468 168.008L194.172 169.416L221.005 156ZM217.405 172.8L242.126 189.796L242.247 189.619L242.366 189.441L217.405 172.8ZM205.005 183.4L191.06 156.838L190.92 156.911L190.782 156.986L205.005 183.4ZM162.805 179.8L141.325 200.743L141.59 201.015L141.862 201.28L162.805 179.8ZM161.005 131.2L189.465 140.687L189.541 140.458L189.614 140.229L161.005 131.2ZM177.605 78.6L206.214 87.6287L206.246 87.5258L206.278 87.4226L177.605 78.6ZM192.405 66.6L202.029 95.0143L202.162 94.9692L202.295 94.9227L192.405 66.6ZM218.005 92.2C219.553 92.2 219.497 92.3431 218.428 92.0895C217.579 91.8878 213.537 90.8537 209.335 86.9316L250.274 43.0683C244.072 37.2796 237.064 34.8455 232.281 33.7105C227.279 32.5235 222.323 32.2 218.005 32.2V92.2ZM210.157 87.6707C207.878 85.6956 205.844 83.0502 204.48 79.8676C203.15 76.7643 202.805 73.9698 202.805 72H262.805C262.805 61.4242 258.787 50.4191 249.453 42.3293L210.157 87.6707ZM202.805 72C202.805 71.6204 202.815 71.3072 202.827 71.0711C202.839 70.8337 202.854 70.6481 202.865 70.5214C202.877 70.3938 202.887 70.308 202.892 70.2686C202.897 70.2286 202.898 70.2233 202.893 70.2558C202.883 70.3261 202.854 70.5029 202.796 70.8012C202.738 71.0966 202.658 71.4772 202.551 71.9513L261.059 85.2486C261.817 81.9108 262.805 76.9907 262.805 72H202.805ZM203.115 69.8315L180.315 144.431L237.695 161.969L260.495 87.3685L203.115 69.8315ZM181.43 141.382C179.572 145.719 178.405 150.658 178.405 156H238.405C238.405 159.475 237.637 162.548 236.579 165.018L181.43 141.382ZM178.405 156C178.405 162.14 180.018 170.14 185.779 177.341L232.631 139.859C237.325 145.727 238.405 151.993 238.405 156H178.405ZM190.464 182.026C197.665 187.787 205.664 189.4 211.805 189.4V129.4C215.812 129.4 222.078 130.48 227.946 135.174L190.464 182.026ZM211.805 189.4C217.945 189.4 225.944 187.787 233.146 182.026L195.664 135.174C201.532 130.48 207.798 129.4 211.805 129.4V189.4ZM231.046 183.562C234.817 181.047 237.648 178.165 239.582 175.955L194.427 136.445C194.528 136.33 194.819 136.005 195.306 135.556C195.781 135.117 196.599 134.415 197.764 133.638L231.046 183.562ZM240.685 174.618C240.495 174.863 239.339 176.361 237.252 178.069C236.163 178.96 234.27 180.364 231.61 181.625C228.961 182.88 224.679 184.4 219.205 184.4V124.4C208.382 124.4 201.263 129.991 199.258 131.631C196.437 133.939 194.448 136.337 193.324 137.782L240.685 174.618ZM219.205 184.4C212.229 184.4 205.494 181.818 200.324 177.222C195.773 173.177 193.754 168.771 192.915 166.534L249.095 145.466C247.856 142.162 245.337 136.957 240.186 132.378C234.415 127.248 226.98 124.4 219.205 124.4V184.4ZM194.172 169.416C192.198 165.469 191.805 161.939 191.805 159.8H251.805C251.805 154.727 250.878 148.664 247.837 142.584L194.172 169.416ZM191.805 159.8C191.805 158.434 192.049 157.339 192.288 156.632C192.514 155.966 192.677 155.808 192.443 156.159L242.366 189.441C247.795 181.298 251.805 171.269 251.805 159.8H191.805ZM192.683 155.804C192.771 155.676 192.789 155.694 192.611 155.846C192.419 156.011 191.952 156.369 191.06 156.838L218.95 209.962C227.892 205.267 236.011 198.69 242.126 189.796L192.683 155.804ZM190.782 156.986C190.49 157.143 189.555 157.6 187.205 157.6V217.6C198.188 217.6 209.119 215.257 219.228 209.814L190.782 156.986ZM187.205 157.6C184.014 157.6 182.459 157.209 182.039 157.075C181.755 156.984 182.625 157.225 183.748 158.32L141.862 201.28C154.95 214.041 172.081 217.6 187.205 217.6V157.6ZM184.285 158.857C184.323 158.896 184.442 159.028 184.587 159.252C184.733 159.477 184.854 159.719 184.941 159.943C185.026 160.165 185.047 160.289 185.044 160.269C185.039 160.244 185.005 160.034 185.005 159.6H125.005C125.005 174.77 130.135 189.267 141.325 200.743L184.285 158.857ZM185.005 159.6C185.005 157.529 185.79 151.712 189.465 140.687L132.544 121.713C128.219 134.688 125.005 147.805 125.005 159.6H185.005ZM189.614 140.229L206.214 87.6287L148.996 69.5713L132.396 122.171L189.614 140.229ZM206.278 87.4226C205.049 91.4156 202.764 93.896 201.399 95.0027C200.282 95.9084 200.091 95.6706 202.029 95.0143L182.78 38.1857C170.982 42.1821 154.743 50.8897 148.931 69.7774L206.278 87.4226ZM202.295 94.9227C207.602 93.0697 212.795 92.2 218.005 92.2V32.2C205.881 32.2 194.008 34.2637 182.514 38.2772L202.295 94.9227ZM360.581 153.2L388.436 164.342L388.903 163.173L389.271 161.969L360.581 153.2ZM366.181 158.6L382.822 183.561L384.156 182.673L385.387 181.647L366.181 158.6ZM372.581 156.2L345.167 168.384L345.444 169.007L345.748 169.616L372.581 156.2ZM368.981 172.8L393.703 189.796L393.824 189.619L393.943 189.441L368.981 172.8ZM356.581 183.4L342.636 156.838L342.497 156.911L342.358 156.986L356.581 183.4ZM314.381 179.8L292.901 200.743L293.166 201.015L293.438 201.28L314.381 179.8ZM312.781 131.2L341.242 140.687L341.356 140.343L341.463 139.996L312.781 131.2ZM317.381 116.2L346.063 124.996L356.531 90.8603L321.102 86.4317L317.381 116.2ZM293.181 122.6L311.639 146.249L311.816 146.111L311.992 145.97L293.181 122.6ZM281.981 139.4L310.569 148.496L310.693 148.107L310.806 147.715L281.981 139.4ZM282.781 156.4L258.06 173.396L258.676 174.292L259.355 175.141L282.781 156.4ZM290.981 158.6L274.34 133.638L274.34 133.638L290.981 158.6ZM293.781 156.2L272.568 134.987L272.568 134.987L293.781 156.2ZM298.381 166.4L269.921 156.913L269.741 157.453L269.581 158L298.381 166.4ZM286.981 181.8L270.207 156.928L270.071 157.02L269.936 157.113L286.981 181.8ZM248.381 183L233.226 208.89L233.596 209.107L233.972 209.313L248.381 183ZM235.581 169.8L209.268 184.209L209.268 184.209L235.581 169.8ZM233.381 135L204.701 126.2L204.673 126.29L204.646 126.38L233.381 135ZM253.981 107.4L237.493 82.3375L237.493 82.3375L253.981 107.4ZM321.981 101.6L314.539 130.662L342.109 137.723L350.611 110.562L321.981 101.6ZM329.181 78.6L300.721 69.1131L300.634 69.3746L300.551 69.6376L329.181 78.6ZM344.181 66.6L353.805 95.0143L354.01 94.945L354.214 94.8728L344.181 66.6ZM381.381 65L360.912 86.9317L361.664 87.6342L362.463 88.2834L381.381 65ZM383.381 78.6L355.291 68.0663L354.964 68.9396L354.691 69.8315L383.381 78.6ZM332.727 142.058C330.403 147.867 330.181 153.2 330.181 156H390.181C390.181 156.457 390.159 157.386 389.98 158.643C389.807 159.85 389.416 161.891 388.436 164.342L332.727 142.058ZM330.181 156C330.181 160.898 331.18 170.175 338.436 178.399C346.324 187.338 356.515 189.4 363.181 189.4V129.4C367.848 129.4 376.539 130.895 383.426 138.701C389.682 145.791 390.181 153.368 390.181 156H330.181ZM363.181 189.4C368.831 189.4 375.997 188.112 382.822 183.561L349.54 133.638C354.765 130.155 359.931 129.4 363.181 129.4V189.4ZM385.387 181.647C387.738 179.687 389.732 177.614 391.359 175.755L346.204 136.245C346.11 136.353 346.115 136.34 346.218 136.237C346.317 136.138 346.57 135.891 346.976 135.553L385.387 181.647ZM391.359 175.755C391.313 175.808 390.379 176.901 388.722 178.226C387.882 178.898 386.221 180.146 383.848 181.333C381.691 182.411 377.06 184.4 370.781 184.4V124.4C364.302 124.4 359.438 126.456 357.015 127.667C354.375 128.987 352.414 130.435 351.24 131.374C348.917 133.233 347.183 135.126 346.204 136.245L391.359 175.755ZM370.781 184.4C361.137 184.4 354.233 179.778 350.518 176.063C347.19 172.736 345.666 169.507 345.167 168.384L399.996 144.016C398.963 141.693 396.872 137.564 392.944 133.637C388.63 129.322 381.092 124.4 370.781 124.4V184.4ZM345.748 169.616C343.964 166.047 343.381 162.568 343.381 159.8H403.381C403.381 154.365 402.265 148.486 399.414 142.784L345.748 169.616ZM343.381 159.8C343.381 158.434 343.625 157.339 343.865 156.632C344.09 155.966 344.254 155.808 344.02 156.159L393.943 189.441C399.371 181.298 403.381 171.269 403.381 159.8H343.381ZM344.26 155.804C344.348 155.676 344.366 155.694 344.188 155.846C343.996 156.011 343.529 156.369 342.636 156.838L370.526 209.962C379.468 205.267 387.588 198.69 393.703 189.796L344.26 155.804ZM342.358 156.986C341.98 157.19 341.088 157.6 338.981 157.6V217.6C349.942 217.6 360.783 215.21 370.804 209.814L342.358 156.986ZM338.981 157.6C335.691 157.6 334.065 157.201 333.599 157.053C333.266 156.948 334.158 157.183 335.324 158.32L293.438 201.28C306.585 214.098 323.845 217.6 338.981 217.6V157.6ZM335.861 158.857C335.9 158.896 336.019 159.028 336.163 159.252C336.309 159.477 336.43 159.719 336.517 159.943C336.603 160.165 336.624 160.289 336.62 160.269C336.616 160.244 336.581 160.034 336.581 159.6H276.581C276.581 174.77 281.712 189.267 292.901 200.743L335.861 158.857ZM336.581 159.6C336.581 158.116 337.32 152.451 341.242 140.687L284.321 121.713C279.976 134.749 276.581 148.017 276.581 159.6H336.581ZM341.463 139.996L346.063 124.996L288.7 107.404L284.1 122.404L341.463 139.996ZM321.102 86.4317C318.119 86.0588 315 86 312.581 86V146C313.359 146 313.859 146.013 314.132 146.024C314.263 146.029 314.292 146.033 314.238 146.028C314.19 146.025 313.986 146.009 313.66 145.968L321.102 86.4317ZM312.581 86C298.743 86 285.524 90.2531 274.371 99.2296L311.992 145.97C312.053 145.921 312.05 145.93 311.988 145.965C311.925 146 311.853 146.031 311.794 146.051C311.735 146.071 311.744 146.062 311.848 146.045C311.954 146.029 312.19 146 312.581 146V86ZM274.723 98.9505C264.059 107.274 256.833 118.339 253.157 131.085L310.806 147.715C311.014 146.992 311.202 146.702 311.243 146.641C311.276 146.591 311.357 146.47 311.639 146.249L274.723 98.9505ZM253.393 130.304C251.617 135.888 250.581 141.823 250.581 148H310.581C310.581 148.273 310.558 148.469 310.541 148.57C310.525 148.669 310.521 148.647 310.569 148.496L253.393 130.304ZM250.581 148C250.581 155.515 252.165 164.822 258.06 173.396L307.503 139.404C310.464 143.712 310.581 147.418 310.581 148H250.581ZM259.355 175.141C264.911 182.086 274.609 189.4 288.181 189.4V129.4C292.434 129.4 296.481 130.526 299.901 132.425C303.133 134.221 305.144 136.331 306.207 137.659L259.355 175.141ZM288.181 189.4C294.497 189.4 301.362 187.735 307.622 183.561L274.34 133.638C279 130.532 283.998 129.4 288.181 129.4V189.4ZM307.622 183.562C310.718 181.498 313.223 179.185 314.994 177.413L272.568 134.987C272.461 135.094 272.528 135.019 272.758 134.822C272.969 134.641 273.505 134.195 274.34 133.638L307.622 183.562ZM314.994 177.413C314.571 177.837 313.185 179.184 310.866 180.575C308.708 181.87 303.758 184.4 296.781 184.4V124.4C289.005 124.4 283.155 127.23 279.996 129.125C276.678 131.116 274.192 133.363 272.568 134.987L314.994 177.413ZM296.781 184.4C292.433 184.4 287.22 183.331 282.216 180.233C277.296 177.187 274.237 173.21 272.467 169.923C270.783 166.796 270.143 164.099 269.878 162.625C269.601 161.083 269.581 159.995 269.581 159.6H329.581C329.581 156.155 329.285 148.886 325.295 141.477C323.059 137.323 319.416 132.696 313.797 129.217C308.093 125.686 302.062 124.4 296.781 124.4V184.4ZM269.581 159.6C269.581 157.974 269.885 157.019 269.921 156.913L326.842 175.887C328.477 170.981 329.581 165.493 329.581 159.6H269.581ZM269.581 158C269.581 158.001 269.611 157.901 269.693 157.733C269.777 157.563 269.888 157.378 270.019 157.201C270.15 157.024 270.263 156.906 270.325 156.848C270.384 156.792 270.36 156.825 270.207 156.928L303.756 206.672C315.063 199.046 323.275 188.194 327.181 174.8L269.581 158ZM269.936 157.113C269.833 157.184 269.378 157.6 267.381 157.6V217.6C280.318 217.6 292.93 214.149 304.027 206.487L269.936 157.113ZM267.381 157.6C264.802 157.6 263.515 157.084 262.791 156.687L233.972 209.313C244.447 215.049 255.827 217.6 267.381 217.6V157.6ZM263.537 157.11C262.8 156.678 262.372 156.263 261.894 155.391L209.268 184.209C214.924 194.537 223.03 202.922 233.226 208.89L263.537 157.11ZM261.894 155.391C261.542 154.747 260.981 153.417 260.981 150.6H200.981C200.981 162.183 203.487 173.653 209.268 184.209L261.894 155.391ZM260.981 150.6C260.981 148.726 261.273 146.431 262.116 143.62L204.646 126.38C202.29 134.235 200.981 142.34 200.981 150.6H260.981ZM262.062 143.8C263.64 138.654 266.244 135.243 270.47 132.463L237.493 82.3375C221.452 92.8907 210.322 107.879 204.701 126.2L262.062 143.8ZM270.47 132.463C274.37 129.897 281.205 127.4 293.181 127.4V67.4C273.158 67.4 253.859 71.5701 237.493 82.3375L270.47 132.463ZM293.181 127.4C298.214 127.4 305.219 128.275 314.539 130.662L329.424 72.5379C316.877 69.3247 304.682 67.4 293.181 67.4V127.4ZM350.611 110.562L357.811 87.5624L300.551 69.6376L293.351 92.6376L350.611 110.562ZM357.642 88.0868C356.389 91.8439 354.213 94.1334 352.972 95.1261C351.956 95.9392 351.859 95.6735 353.805 95.0143L334.557 38.1857C322.712 42.1976 306.836 50.7666 300.721 69.1131L357.642 88.0868ZM354.214 94.8728C359.299 93.0684 364.375 92.2 369.581 92.2V32.2C357.455 32.2 345.597 34.2649 334.149 38.3271L354.214 94.8728ZM369.581 92.2C371.129 92.2 371.074 92.3431 370.005 92.0895C369.155 91.8878 365.114 90.8537 360.912 86.9317L401.851 43.0683C395.649 37.2796 388.641 34.8455 383.858 33.7105C378.855 32.5235 373.9 32.2 369.581 32.2V92.2ZM362.463 88.2834C360.208 86.4509 358.019 83.8516 356.497 80.5228C355.001 77.2509 354.581 74.2216 354.581 72H414.581C414.581 60.7289 409.967 49.5715 400.299 41.7166L362.463 88.2834ZM354.581 72C354.581 70.6503 354.835 69.2834 355.291 68.0663L411.471 89.1337C413.528 83.6499 414.581 77.883 414.581 72H354.581ZM354.691 69.8315L331.891 144.431L389.271 161.969L412.071 87.3685L354.691 69.8315ZM518.944 153.2L490.275 144.361L489.826 145.82L489.526 147.317L518.944 153.2ZM524.744 158.6L541.385 183.562L542.718 182.673L543.949 181.647L524.744 158.6ZM527.144 156L504.566 136.245L503.822 137.096L503.144 138L527.144 156ZM531.144 156.2L503.729 168.384L504.586 170.311L505.704 172.1L531.144 156.2ZM527.544 172.8L502.932 155.646L502.877 155.725L502.823 155.804L527.544 172.8ZM515.144 183.4L501.199 156.838L501.059 156.911L500.921 156.986L515.144 183.4ZM474.544 181L493.922 158.098L493.922 158.098L474.544 181ZM465.344 163.6L495.095 159.743L491.899 135.089L467.08 133.65L465.344 163.6ZM422.144 142.8L445.427 123.882L433.496 109.198L415.105 113.638L422.144 142.8ZM394.144 141.4L405.86 113.783L405.86 113.783L394.144 141.4ZM383.744 133.8L360.222 152.421L360.222 152.421L383.744 133.8ZM383.344 114.2L402.415 137.358L402.809 137.033L403.192 136.695L383.344 114.2ZM397.344 112.2L386.574 140.2L386.574 140.2L397.344 112.2ZM403.144 115.2L387.244 140.64L404.687 151.542L421.144 139.2L403.144 115.2ZM411.544 106.6L386.415 90.212L386.324 90.3523L386.234 90.4937L411.544 106.6ZM413.144 95L390.366 114.524L391.116 115.399L391.931 116.213L413.144 95ZM399.544 88.8L428.004 98.2868L428.126 97.922L428.238 97.5542L399.544 88.8ZM413.744 69.2L395.963 45.0369L395.963 45.0369L413.744 69.2ZM467.744 101L496.848 108.276L496.956 107.845L497.051 107.411L467.744 101ZM457.544 121L481.065 139.621L481.065 139.621L457.544 121ZM438.744 136.6L424.577 110.156L369.221 139.811L427.075 164.237L438.744 136.6ZM466.144 136.4L446.458 113.762L446.209 113.979L445.964 114.202L466.144 136.4ZM473.344 124.8L501.729 134.511L501.862 134.121L501.985 133.727L473.344 124.8ZM487.744 78.6L459.283 69.1132L459.19 69.3922L459.103 69.6729L487.744 78.6ZM502.744 66.6L512.368 95.0143L512.573 94.945L512.776 94.8728L502.744 66.6ZM539.944 65L519.474 86.9316L520.227 87.6342L521.026 88.2834L539.944 65ZM541.944 78.6L570.612 87.4388L570.646 87.3298L570.679 87.2205L541.944 78.6ZM489.526 147.317C489.413 147.882 488.544 151.848 488.544 155.8H548.544C548.544 156.549 548.514 157.157 548.488 157.56C548.461 157.978 548.429 158.317 548.404 158.553C548.356 159.009 548.309 159.318 548.295 159.412C548.267 159.591 548.274 159.521 548.361 159.083L489.526 147.317ZM488.544 155.8C488.544 161.21 489.789 170.846 497.583 179.099C505.681 187.673 515.734 189.4 521.944 189.4V129.4C525.887 129.4 534.24 130.527 541.204 137.901C547.865 144.954 548.544 152.79 548.544 155.8H488.544ZM521.944 189.4C528.26 189.4 535.125 187.735 541.385 183.562L508.103 133.638C512.763 130.532 517.761 129.4 521.944 129.4V189.4ZM543.949 181.647C546.955 179.142 549.315 176.438 551.144 174L503.144 138C503.372 137.695 504.133 136.725 505.538 135.553L543.949 181.647ZM549.721 175.755C549.44 176.076 548.192 177.496 546.039 179.062C544.912 179.881 543.065 181.089 540.548 182.149C538.039 183.206 534.182 184.4 529.344 184.4V124.4C519.66 124.4 513.015 128.89 510.749 130.538C507.862 132.637 505.78 134.858 504.566 136.245L549.721 175.755ZM529.344 184.4C519.7 184.4 512.795 179.778 509.081 176.063C505.753 172.736 504.228 169.507 503.729 168.384L558.558 144.016C557.526 141.693 555.435 137.564 551.507 133.637C547.192 129.322 539.654 124.4 529.344 124.4V184.4ZM505.704 172.1C503.209 168.108 502.144 163.737 502.144 159.8H562.144C562.144 153.197 560.412 146.425 556.584 140.3L505.704 172.1ZM502.144 159.8C502.144 158.27 502.43 157.041 502.712 156.243C502.977 155.493 503.176 155.295 502.932 155.646L552.156 189.954C557.824 181.821 562.144 171.614 562.144 159.8H502.144ZM502.823 155.804C502.91 155.676 502.929 155.694 502.75 155.846C502.558 156.011 502.091 156.369 501.199 156.838L529.089 209.962C538.031 205.267 546.15 198.69 552.265 189.796L502.823 155.804ZM500.921 156.986C500.542 157.19 499.65 157.6 497.544 157.6V217.6C508.504 217.6 519.345 215.21 529.367 209.814L500.921 156.986ZM497.544 157.6C494.559 157.6 493 157.266 492.469 157.114C492.024 156.986 492.775 157.128 493.922 158.098L455.165 203.902C467.883 214.663 483.664 217.6 497.544 217.6V157.6ZM493.922 158.098C494 158.165 494.159 158.312 494.35 158.548C494.543 158.786 494.72 159.054 494.865 159.327C495.176 159.916 495.15 160.167 495.095 159.743L435.593 167.457C437.419 181.542 443.856 194.332 455.165 203.902L493.922 158.098ZM467.08 133.65C455.996 133.008 449.857 129.335 445.427 123.882L398.86 161.718C415.23 181.865 437.892 192.059 463.608 193.55L467.08 133.65ZM415.105 113.638C414.016 113.9 412.047 114.2 408.944 114.2V174.2C415.707 174.2 422.538 173.566 429.183 171.962L415.105 113.638ZM408.944 114.2C406.928 114.2 406.059 113.867 405.86 113.783L382.427 169.017C391.029 172.666 400.026 174.2 408.944 174.2V114.2ZM405.86 113.783C405.543 113.648 405.624 113.644 405.944 113.878C406.281 114.124 406.768 114.551 407.265 115.179L360.222 152.421C366.37 160.187 374.195 165.525 382.427 169.017L405.86 113.783ZM407.265 115.179C407.705 115.735 408.417 116.796 409.006 118.377C409.611 120.001 409.944 121.796 409.944 123.6H349.944C349.944 134.854 354.084 144.668 360.222 152.421L407.265 115.179ZM409.944 123.6C409.944 123.606 409.95 131.152 402.415 137.358L364.273 91.0421C352.204 100.981 349.944 114.794 349.944 123.6H409.944ZM403.192 136.695C401.517 138.173 399.484 139.399 397.234 140.202C395.028 140.99 393.103 141.2 391.744 141.2V81.2C381.91 81.2 371.82 84.359 363.495 91.7048L403.192 136.695ZM391.744 141.2C390.347 141.2 388.534 140.954 386.574 140.2L408.113 84.1996C402.687 82.1126 397.141 81.2 391.744 81.2V141.2ZM386.574 140.2C386.256 140.078 386.162 140.019 386.311 140.097C386.455 140.171 386.763 140.339 387.244 140.64L419.044 89.76C415.816 87.7425 412.136 85.7469 408.113 84.1996L386.574 140.2ZM421.144 139.2C426.84 134.928 432.507 129.536 436.854 122.706L386.234 90.4937C386.566 89.9725 386.749 89.8168 386.582 89.9878C386.415 90.1598 385.976 90.5762 385.144 91.2L421.144 139.2ZM436.672 122.988C439.835 118.138 444.544 109.585 444.544 98.8H384.544C384.544 95.2495 385.355 92.7206 385.793 91.5806C386.244 90.4095 386.6 89.9287 386.415 90.212L436.672 122.988ZM444.544 98.8C444.544 91.0447 442.073 81.5033 434.357 73.7868L391.931 116.213C386.081 110.363 384.544 103.355 384.544 98.8H444.544ZM435.921 75.4763C427.811 66.0142 417.08 63.6 409.544 63.6V123.6C405.208 123.6 396.876 122.119 390.366 114.524L435.921 75.4763ZM409.544 63.6C401.354 63.6 394.248 66.1876 388.621 69.6502L420.067 120.75C417.907 122.079 414.267 123.6 409.544 123.6V63.6ZM388.621 69.6502C388.198 69.9104 388.549 69.6652 389.42 69.2554C389.858 69.0493 390.879 68.5861 392.313 68.1273C393.055 67.8899 394.116 67.586 395.427 67.3303C396.696 67.0827 398.602 66.8 400.944 66.8V126.8C408.563 126.8 414.398 123.812 414.968 123.545C416.972 122.601 418.756 121.556 420.067 120.75L388.621 69.6502ZM400.944 66.8C404.475 66.8 409.026 67.5001 413.72 69.9183C418.518 72.39 422.085 75.9499 424.481 79.6524C428.733 86.224 428.744 92.2581 428.744 93.4H368.744C368.744 96.8086 369.121 104.543 374.107 112.248C380.548 122.202 391.082 126.8 400.944 126.8V66.8ZM428.744 93.4C428.744 95.6003 428.341 97.278 428.004 98.2868L371.083 79.3132C369.68 83.522 368.744 88.2663 368.744 93.4H428.744ZM428.238 97.5542C428.624 96.2894 429.29 95.0072 431.524 93.3631L395.963 45.0369C384.064 53.7927 375.264 65.5773 370.849 80.0458L428.238 97.5542ZM431.524 93.3631C432.876 92.3685 434.873 91.4 438.944 91.4V31.4C423.548 31.4 408.745 35.6315 395.963 45.0369L431.524 93.3631ZM438.944 91.4C441.054 91.4 441.748 91.7013 441.531 91.6217C441.408 91.5769 441.11 91.451 440.716 91.196C440.317 90.9377 439.934 90.6207 439.607 90.2764L483.08 48.9236C470.693 35.9009 454.383 31.4 438.944 31.4V91.4ZM439.607 90.2764C439.555 90.2213 439.445 90.0936 439.324 89.8997C439.202 89.7051 439.119 89.5246 439.071 89.3956C439.025 89.2712 439.039 89.2702 439.068 89.4401C439.097 89.6157 439.144 89.9895 439.144 90.6H499.144C499.144 75.4603 494.292 60.7102 483.08 48.9236L439.607 90.2764ZM439.144 90.6C439.144 90.2569 439.168 90.4078 439.062 91.1976C438.96 91.9536 438.77 93.0664 438.437 94.5891L497.051 107.411C498.193 102.189 499.144 96.3465 499.144 90.6H439.144ZM438.639 93.7239C438.077 95.9728 436.819 98.8468 434.022 102.379L481.065 139.621C488.402 130.353 493.944 119.894 496.848 108.276L438.639 93.7239ZM434.022 102.379C431.602 105.436 428.562 108.021 424.577 110.156L452.91 163.044C463.858 157.179 473.352 149.364 481.065 139.621L434.022 102.379ZM427.075 164.237C435.407 167.756 444.817 170.4 454.744 170.4V110.4C455.108 110.4 454.955 110.447 454.176 110.262C453.396 110.077 452.156 109.699 450.413 108.963L427.075 164.237ZM454.744 170.4C465.47 170.4 476.911 167.155 486.324 158.598L445.964 114.202C447.517 112.789 449.332 111.734 451.161 111.092C452.915 110.477 454.222 110.4 454.744 110.4V170.4ZM485.829 159.038C493.956 151.971 498.812 143.035 501.729 134.511L444.959 115.089C444.408 116.698 444.465 115.496 446.458 113.762L485.829 159.038ZM501.985 133.727L516.385 87.5271L459.103 69.6729L444.703 115.873L501.985 133.727ZM516.204 88.0868C514.952 91.8439 512.775 94.1334 511.535 95.1261C510.518 95.9392 510.422 95.6735 512.368 95.0143L493.12 38.1857C481.275 42.1976 465.399 50.7666 459.283 69.1132L516.204 88.0868ZM512.776 94.8728C517.861 93.0684 522.937 92.2 528.144 92.2V32.2C516.017 32.2 504.16 34.2649 492.711 38.3272L512.776 94.8728ZM528.144 92.2C529.692 92.2 529.636 92.3431 528.567 92.0895C527.718 91.8878 523.676 90.8537 519.474 86.9316L560.413 43.0683C554.211 37.2796 547.203 34.8455 542.42 33.7105C537.418 32.5235 532.462 32.2 528.144 32.2V92.2ZM521.026 88.2834C518.771 86.4509 516.581 83.8516 515.06 80.5228C513.564 77.2509 513.144 74.2217 513.144 72H573.144C573.144 60.7288 568.529 49.5715 558.862 41.7166L521.026 88.2834ZM513.144 72C513.144 70.6373 513.293 69.7743 513.328 69.5834C513.369 69.3578 513.362 69.4687 513.209 69.9795L570.679 87.2205C571.875 83.232 573.144 77.8721 573.144 72H513.144ZM513.275 69.7612L490.275 144.361L547.612 162.039L570.612 87.4388L513.275 69.7612ZM595.733 7.19999L584.091 34.8491L584.309 34.9409L584.529 35.0293L595.733 7.19999ZM618.133 24L593.099 40.5318L593.207 40.6949L593.316 40.8565L618.133 24ZM623.133 62L651.829 70.7474L651.891 70.545L651.95 70.3417L623.133 62ZM595.333 153.2L622.907 165.018L623.552 163.513L624.029 161.947L595.333 153.2ZM595.533 158.6L572.107 177.341L574.189 179.944L576.792 182.026L595.533 158.6ZM600.733 158.6L584.092 133.638L583.009 134.361L581.992 135.174L600.733 158.6ZM603.333 156.2L625.91 175.955L626.481 175.303L627.013 174.618L603.333 156.2ZM607.333 156L579.243 166.534L579.796 168.008L580.5 169.416L607.333 156ZM603.733 172.8L628.454 189.796L628.575 189.619L628.694 189.441L603.733 172.8ZM591.333 183.4L577.388 156.838L577.248 156.911L577.11 156.986L591.333 183.4ZM549.133 179.8L527.653 200.743L527.918 201.015L528.19 201.28L549.133 179.8ZM542.733 148L572.04 154.411L572.06 154.318L572.08 154.225L542.733 148ZM547.333 131.2L575.957 140.18L575.984 140.094L576.011 140.008L547.333 131.2ZM573.133 47.2L601.811 56.0082L601.916 55.6665L602.012 55.3224L573.133 47.2ZM569.333 21.6L548.951 43.6128L549.372 44.0035L549.809 44.3777L569.333 21.6ZM544.533 20.4L525.426 -2.72887L525.173 -2.51952L524.924 -2.30468L544.533 20.4ZM541.733 35.4L519.311 55.3309L519.311 55.3309L541.733 35.4ZM551.333 35.4L569.333 59.4L569.948 58.9388L570.538 58.4466L551.333 35.4ZM555.733 39.8L584.374 48.7271L584.534 48.213L584.676 47.6935L555.733 39.8ZM506.533 49.4L488.241 73.1787L488.287 73.2137L488.333 73.2485L506.533 49.4ZM499.933 26.8L528.393 36.2868L528.663 35.4764L528.887 34.652L499.933 26.8ZM517.733 7.99999L530.703 35.0515L530.853 34.9796L531.002 34.9061L517.733 7.99999ZM557.133 30.8C570.284 30.8 578.843 32.6395 584.091 34.8491L607.375 -20.4491C592.356 -26.7729 575.182 -29.2 557.133 -29.2V30.8ZM584.529 35.0293C590.863 37.5795 592.682 39.9001 593.099 40.5318L643.167 7.46814C634.251 -6.03341 621.136 -14.9129 606.937 -20.6293L584.529 35.0293ZM593.316 40.8565C594.743 42.9564 595.333 44.885 595.333 47.4H655.333C655.333 32.8484 651.123 19.1769 642.949 7.14351L593.316 40.8565ZM595.333 47.4C595.333 48.9046 595.098 50.9558 594.316 53.6583L651.95 70.3417C654.101 62.9109 655.333 55.2287 655.333 47.4H595.333ZM594.436 53.2526L566.636 144.453L624.029 161.947L651.829 70.7474L594.436 53.2526ZM567.758 141.382C565.9 145.719 564.733 150.658 564.733 156H624.733C624.733 159.475 623.966 162.548 622.907 165.018L567.758 141.382ZM564.733 156C564.733 162.14 566.346 170.14 572.107 177.341L618.959 139.859C623.653 145.727 624.733 151.993 624.733 156H564.733ZM576.792 182.026C583.993 187.787 591.993 189.4 598.133 189.4V129.4C602.14 129.4 608.406 130.48 614.274 135.174L576.792 182.026ZM598.133 189.4C604.273 189.4 612.273 187.787 619.474 182.026L581.992 135.174C587.86 130.48 594.126 129.4 598.133 129.4V189.4ZM617.374 183.562C621.145 181.047 623.977 178.165 625.91 175.955L580.756 136.445C580.856 136.33 581.147 136.005 581.634 135.556C582.11 135.117 582.927 134.415 584.092 133.638L617.374 183.562ZM627.013 174.618C626.823 174.863 625.668 176.361 623.58 178.069C622.491 178.96 620.598 180.364 617.938 181.625C615.289 182.88 611.007 184.4 605.533 184.4V124.4C594.71 124.4 587.591 129.991 585.586 131.631C582.765 133.939 580.776 136.337 579.652 137.782L627.013 174.618ZM605.533 184.4C598.557 184.4 591.822 181.818 586.652 177.222C582.101 173.177 580.082 168.771 579.243 166.534L635.423 145.466C634.184 142.162 631.665 136.957 626.514 132.378C620.743 127.248 613.308 124.4 605.533 124.4V184.4ZM580.5 169.416C578.526 165.469 578.133 161.939 578.133 159.8H638.133C638.133 154.727 637.206 148.664 634.166 142.584L580.5 169.416ZM578.133 159.8C578.133 158.434 578.377 157.339 578.616 156.632C578.842 155.966 579.005 155.808 578.771 156.159L628.694 189.441C634.123 181.298 638.133 171.269 638.133 159.8H578.133ZM579.012 155.804C579.099 155.676 579.118 155.694 578.939 155.846C578.747 156.011 578.28 156.369 577.388 156.838L605.278 209.962C614.22 205.267 622.34 198.69 628.454 189.796L579.012 155.804ZM577.11 156.986C576.818 157.143 575.883 157.6 573.533 157.6V217.6C584.516 217.6 595.447 215.257 605.556 209.814L577.11 156.986ZM573.533 157.6C570.342 157.6 568.787 157.209 568.368 157.075C568.083 156.984 568.953 157.225 570.076 158.32L528.19 201.28C541.278 214.041 558.409 217.6 573.533 217.6V157.6ZM570.613 158.857C570.651 158.896 570.77 159.028 570.915 159.252C571.061 159.477 571.182 159.719 571.269 159.943C571.354 160.165 571.375 160.289 571.372 160.269C571.367 160.244 571.333 160.034 571.333 159.6H511.333C511.333 174.77 516.463 189.267 527.653 200.743L570.613 158.857ZM571.333 159.6C571.333 158.76 571.454 157.088 572.04 154.411L513.426 141.589C512.145 147.445 511.333 153.506 511.333 159.6H571.333ZM572.08 154.225C572.737 151.128 573.965 146.531 575.957 140.18L518.708 122.22C516.434 129.469 514.595 136.072 513.386 141.775L572.08 154.225ZM576.011 140.008L601.811 56.0082L544.455 38.3918L518.655 122.392L576.011 140.008ZM602.012 55.3224C603.727 49.2246 604.933 42.6116 604.933 35.8H544.933C544.933 35.655 544.938 36.6421 544.253 39.0776L602.012 55.3224ZM604.933 35.8C604.933 23.3626 600.98 9.21388 588.857 -1.17771L549.809 44.3777C547.832 42.6829 546.42 40.5739 545.625 38.556C544.896 36.7096 544.933 35.5894 544.933 35.8H604.933ZM589.715 -0.412808C580.065 -9.34794 568.107 -13.4 555.933 -13.4V46.6C555.441 46.6 554.291 46.5152 552.795 45.9571C551.257 45.3832 549.935 44.524 548.951 43.6128L589.715 -0.412808ZM555.933 -13.4C545.456 -13.4 534.614 -10.3184 525.426 -2.72887L563.639 43.5288C562.302 44.6338 560.752 45.483 559.17 46.0105C557.637 46.5214 556.472 46.6 555.933 46.6V-13.4ZM524.924 -2.30468C514.679 6.54364 510.133 18.6039 510.133 30.6H570.133C570.133 31.9357 569.892 34.1519 568.779 36.7327C567.634 39.3883 565.939 41.5519 564.141 43.1047L524.924 -2.30468ZM510.133 30.6C510.133 38.0717 512.246 47.3828 519.311 55.3309L564.155 15.4691C569.087 21.0172 570.133 27.1283 570.133 30.6H510.133ZM519.311 55.3309C527.016 64.0001 537.233 67.2 546.133 67.2V7.2C548.413 7.2 551.538 7.5708 554.992 8.98359C558.553 10.4406 561.688 12.6941 564.155 15.4691L519.311 55.3309ZM546.133 67.2C554.967 67.2 562.934 64.1989 569.333 59.4L533.333 11.4C536.531 9.00111 541.032 7.2 546.133 7.2V67.2ZM570.538 58.4466C570.874 58.1665 570.356 58.638 569.233 59.34C568.671 59.6909 567.393 60.4584 565.571 61.2173C564.119 61.8223 560.07 63.4 554.533 63.4V3.4C548.729 3.4 544.346 5.06103 542.494 5.83269C540.273 6.75822 538.528 7.77578 537.433 8.46004C535.243 9.82869 533.391 11.3001 532.127 12.3533L570.538 58.4466ZM554.533 63.4C550.584 63.4 545.671 62.5454 540.751 59.8122C535.791 57.0568 532.35 53.2378 530.158 49.5849C526.311 43.1736 526.333 37.4207 526.333 36.4H586.333C586.333 33.3793 586.054 26.1263 581.608 18.7151C575.696 8.86237 565.296 3.4 554.533 3.4V63.4ZM526.333 36.4C526.333 34.4768 526.555 33.1124 526.639 32.6364C526.74 32.0685 526.82 31.7951 526.79 31.9065L584.676 47.6935C585.268 45.5224 586.333 41.2826 586.333 36.4H526.333ZM527.092 30.8729C527.324 30.1279 527.851 28.9296 528.878 27.6615C529.91 26.3866 531.026 25.5617 531.846 25.1075C532.596 24.692 532.83 24.7318 532.167 24.8701C531.491 25.0112 530.139 25.2 527.933 25.2V85.2C538.557 85.2 550.288 83.4823 560.92 77.5925C572.421 71.2215 580.515 61.1078 584.374 48.7271L527.092 30.8729ZM527.933 25.2C525.366 25.2 524.004 24.9231 523.531 24.7946C523.122 24.6838 523.727 24.7834 524.733 25.5515L488.333 73.2485C500.496 82.5315 514.975 85.2 527.933 85.2V25.2ZM524.824 25.6213C525.277 25.9699 526.455 27.0379 527.446 28.9947C528.459 30.9952 528.733 32.851 528.733 34H468.733C468.733 50.0778 476.062 63.8099 488.241 73.1787L524.824 25.6213ZM528.733 34C528.733 34.9953 528.557 35.7943 528.393 36.2868L471.472 17.3132C469.708 22.6057 468.733 28.2046 468.733 34H528.733ZM528.887 34.652C528.756 35.134 528.554 35.6263 528.3 36.0709C528.051 36.5083 527.833 36.7568 527.767 36.8259C527.669 36.9296 528.345 36.182 530.703 35.0515L504.763 -19.0515C489.87 -11.9108 476.078 0.142869 470.979 18.948L528.887 34.652ZM531.002 34.9061C535.013 32.9281 543.011 30.8 557.133 30.8V-29.2C538.188 -29.2 519.92 -26.5281 504.464 -18.9061L531.002 34.9061ZM746.909 153.2L774.764 164.342L775.231 163.173L775.599 161.969L746.909 153.2ZM752.509 158.6L769.15 183.561L770.484 182.673L771.715 181.647L752.509 158.6ZM758.909 156.2L731.495 168.384L731.772 169.007L732.077 169.616L758.909 156.2ZM755.309 172.8L780.031 189.796L780.152 189.619L780.271 189.441L755.309 172.8ZM742.909 183.4L728.964 156.838L728.825 156.911L728.686 156.986L742.909 183.4ZM700.709 179.8L679.229 200.743L679.494 201.015L679.766 201.28L700.709 179.8ZM699.109 131.2L727.57 140.687L727.685 140.343L727.791 139.996L699.109 131.2ZM703.709 116.2L732.391 124.996L742.859 90.8603L707.43 86.4317L703.709 116.2ZM679.509 122.6L697.968 146.249L698.145 146.111L698.32 145.97L679.509 122.6ZM668.309 139.4L696.897 148.496L697.021 148.107L697.134 147.715L668.309 139.4ZM669.109 156.4L644.388 173.396L645.004 174.292L645.683 175.141L669.109 156.4ZM677.309 158.6L660.668 133.638L660.668 133.638L677.309 158.6ZM680.109 156.2L658.896 134.987L658.896 134.987L680.109 156.2ZM684.709 166.4L656.249 156.913L656.069 157.453L655.909 158L684.709 166.4ZM673.309 181.8L656.535 156.928L656.399 157.02L656.264 157.113L673.309 181.8ZM634.709 183L619.554 208.89L619.924 209.107L620.3 209.313L634.709 183ZM621.909 169.8L595.596 184.209L595.596 184.209L621.909 169.8ZM619.709 135L591.029 126.2L591.001 126.29L590.975 126.38L619.709 135ZM640.309 107.4L623.821 82.3375L623.821 82.3375L640.309 107.4ZM708.309 101.6L700.867 130.662L728.437 137.723L736.939 110.562L708.309 101.6ZM715.509 78.6L687.049 69.1131L686.962 69.3746L686.879 69.6376L715.509 78.6ZM730.509 66.6L740.134 95.0143L740.338 94.945L740.542 94.8728L730.509 66.6ZM767.709 65L747.24 86.9317L747.993 87.6342L748.792 88.2834L767.709 65ZM769.709 78.6L741.62 68.0663L741.292 68.9396L741.019 69.8315L769.709 78.6ZM719.055 142.058C716.732 147.867 716.509 153.2 716.509 156H776.509C776.509 156.457 776.487 157.386 776.308 158.643C776.135 159.85 775.744 161.891 774.764 164.342L719.055 142.058ZM716.509 156C716.509 160.898 717.509 170.175 724.764 178.399C732.652 187.338 742.843 189.4 749.509 189.4V129.4C754.176 129.4 762.867 130.895 769.755 138.701C776.01 145.791 776.509 153.368 776.509 156H716.509ZM749.509 189.4C755.16 189.4 762.325 188.112 769.15 183.561L735.868 133.638C741.094 130.155 746.259 129.4 749.509 129.4V189.4ZM771.715 181.647C774.066 179.687 776.06 177.614 777.687 175.755L732.532 136.245C732.438 136.353 732.443 136.34 732.546 136.237C732.645 136.138 732.898 135.891 733.304 135.553L771.715 181.647ZM777.687 175.755C777.641 175.808 776.707 176.901 775.05 178.226C774.21 178.898 772.549 180.146 770.176 181.333C768.02 182.411 763.388 184.4 757.109 184.4V124.4C750.631 124.4 745.766 126.456 743.343 127.667C740.703 128.987 738.742 130.435 737.569 131.374C735.245 133.233 733.511 135.126 732.532 136.245L777.687 175.755ZM757.109 184.4C747.465 184.4 740.561 179.778 736.846 176.063C733.519 172.736 731.994 169.507 731.495 168.384L786.324 144.016C785.291 141.693 783.2 137.564 779.273 133.637C774.958 129.322 767.42 124.4 757.109 124.4V184.4ZM732.077 169.616C730.292 166.047 729.709 162.568 729.709 159.8H789.709C789.709 154.365 788.593 148.486 785.742 142.784L732.077 169.616ZM729.709 159.8C729.709 158.434 729.953 157.339 730.193 156.632C730.418 155.966 730.582 155.808 730.348 156.159L780.271 189.441C785.699 181.298 789.709 171.269 789.709 159.8H729.709ZM730.588 155.804C730.676 155.676 730.694 155.694 730.516 155.846C730.324 156.011 729.857 156.369 728.964 156.838L756.854 209.962C765.796 205.267 773.916 198.69 780.031 189.796L730.588 155.804ZM728.686 156.986C728.308 157.19 727.416 157.6 725.309 157.6V217.6C736.27 217.6 747.111 215.21 757.132 209.814L728.686 156.986ZM725.309 157.6C722.019 157.6 720.393 157.201 719.927 157.053C719.594 156.948 720.486 157.183 721.652 158.32L679.766 201.28C692.913 214.098 710.173 217.6 725.309 217.6V157.6ZM722.189 158.857C722.228 158.896 722.347 159.028 722.491 159.252C722.637 159.477 722.759 159.719 722.845 159.943C722.931 160.165 722.952 160.289 722.948 160.269C722.944 160.244 722.909 160.034 722.909 159.6H662.909C662.909 174.77 668.04 189.267 679.229 200.743L722.189 158.857ZM722.909 159.6C722.909 158.116 723.648 152.451 727.57 140.687L670.649 121.713C666.304 134.749 662.909 148.017 662.909 159.6H722.909ZM727.791 139.996L732.391 124.996L675.028 107.404L670.428 122.404L727.791 139.996ZM707.43 86.4317C704.448 86.0588 701.328 86 698.909 86V146C699.687 146 700.187 146.013 700.46 146.024C700.591 146.029 700.62 146.033 700.566 146.028C700.519 146.025 700.314 146.009 699.988 145.968L707.43 86.4317ZM698.909 86C685.071 86 671.852 90.2531 660.699 99.2296L698.32 145.97C698.381 145.921 698.379 145.93 698.316 145.965C698.253 146 698.181 146.031 698.122 146.051C698.064 146.071 698.072 146.062 698.176 146.045C698.282 146.029 698.519 146 698.909 146V86ZM661.051 98.9505C650.387 107.274 643.162 118.339 639.485 131.085L697.134 147.715C697.343 146.992 697.53 146.702 697.571 146.641C697.605 146.591 697.685 146.47 697.968 146.249L661.051 98.9505ZM639.722 130.304C637.945 135.888 636.909 141.823 636.909 148H696.909C696.909 148.273 696.886 148.469 696.87 148.57C696.854 148.669 696.849 148.647 696.897 148.496L639.722 130.304ZM636.909 148C636.909 155.515 638.493 164.822 644.388 173.396L693.831 139.404C696.792 143.712 696.909 147.418 696.909 148H636.909ZM645.683 175.141C651.239 182.086 660.937 189.4 674.509 189.4V129.4C678.763 129.4 682.809 130.526 686.229 132.425C689.461 134.221 691.473 136.331 692.535 137.659L645.683 175.141ZM674.509 189.4C680.826 189.4 687.691 187.735 693.95 183.561L660.668 133.638C665.328 130.532 670.327 129.4 674.509 129.4V189.4ZM693.95 183.562C697.046 181.498 699.551 179.185 701.323 177.413L658.896 134.987C658.789 135.094 658.856 135.019 659.086 134.822C659.297 134.641 659.833 134.195 660.668 133.638L693.95 183.562ZM701.323 177.413C700.899 177.837 699.513 179.184 697.194 180.575C695.036 181.87 690.086 184.4 683.109 184.4V124.4C675.333 124.4 669.483 127.23 666.325 129.125C663.006 131.116 660.52 133.363 658.896 134.987L701.323 177.413ZM683.109 184.4C678.762 184.4 673.548 183.331 668.544 180.233C663.624 177.187 660.565 173.21 658.795 169.923C657.111 166.796 656.471 164.099 656.206 162.625C655.929 161.083 655.909 159.995 655.909 159.6H715.909C715.909 156.155 715.613 148.886 711.624 141.477C709.387 137.323 705.745 132.696 700.125 129.217C694.421 125.686 688.391 124.4 683.109 124.4V184.4ZM655.909 159.6C655.909 157.974 656.214 157.019 656.249 156.913L713.17 175.887C714.805 170.981 715.909 165.493 715.909 159.6H655.909ZM655.909 158C655.909 158.001 655.939 157.901 656.021 157.733C656.105 157.563 656.216 157.378 656.347 157.201C656.478 157.024 656.591 156.906 656.653 156.848C656.712 156.792 656.688 156.825 656.535 156.928L690.084 206.672C701.391 199.046 709.603 188.194 713.509 174.8L655.909 158ZM656.264 157.113C656.161 157.184 655.706 157.6 653.709 157.6V217.6C666.646 217.6 679.258 214.149 690.355 206.487L656.264 157.113ZM653.709 157.6C651.13 157.6 649.843 157.084 649.119 156.687L620.3 209.313C630.775 215.049 642.155 217.6 653.709 217.6V157.6ZM649.865 157.11C649.128 156.678 648.7 156.263 648.222 155.391L595.596 184.209C601.252 194.537 609.358 202.922 619.554 208.89L649.865 157.11ZM648.222 155.391C647.87 154.747 647.309 153.417 647.309 150.6H587.309C587.309 162.183 589.815 173.653 595.596 184.209L648.222 155.391ZM647.309 150.6C647.309 148.726 647.601 146.431 648.444 143.62L590.975 126.38C588.618 134.235 587.309 142.34 587.309 150.6H647.309ZM648.39 143.8C649.968 138.654 652.572 135.243 656.798 132.463L623.821 82.3375C607.78 92.8907 596.65 107.879 591.029 126.2L648.39 143.8ZM656.798 132.463C660.698 129.897 667.533 127.4 679.509 127.4V67.4C659.486 67.4 640.187 71.5701 623.821 82.3375L656.798 132.463ZM679.509 127.4C684.542 127.4 691.547 128.275 700.867 130.662L715.752 72.5379C703.205 69.3247 691.01 67.4 679.509 67.4V127.4ZM736.939 110.562L744.139 87.5624L686.879 69.6376L679.679 92.6376L736.939 110.562ZM743.97 88.0868C742.718 91.8439 740.541 94.1334 739.3 95.1261C738.284 95.9392 738.187 95.6735 740.134 95.0143L720.885 38.1857C709.04 42.1976 693.164 50.7666 687.049 69.1131L743.97 88.0868ZM740.542 94.8728C745.627 93.0684 750.703 92.2 755.909 92.2V32.2C743.783 32.2 731.925 34.2649 720.477 38.3271L740.542 94.8728ZM755.909 92.2C757.457 92.2 757.402 92.3431 756.333 92.0895C755.483 91.8878 751.442 90.8537 747.24 86.9317L788.179 43.0683C781.977 37.2796 774.969 34.8455 770.186 33.7105C765.183 32.5235 760.228 32.2 755.909 32.2V92.2ZM748.792 88.2834C746.536 86.4509 744.347 83.8516 742.825 80.5228C741.329 77.2509 740.909 74.2216 740.909 72H800.909C800.909 60.7289 796.295 49.5715 786.627 41.7166L748.792 88.2834ZM740.909 72C740.909 70.6503 741.163 69.2834 741.62 68.0663L797.799 89.1337C799.856 83.6499 800.909 77.883 800.909 72H740.909ZM741.019 69.8315L718.219 144.431L775.599 161.969L798.399 87.3685L741.019 69.8315Z" fill="white" mask="url(#path-1-outside-1_286_3)"/>
</g>
<defs>
<filter id="filter0_d_286_3" x="0.700195" y="0.799805" width="774.709" height="200.3" filterUnits="userSpaceOnUse" color-interpolation-filters="sRGB">
<feFlood flood-opacity="0" result="BackgroundImageFix"/>
<feColorMatrix in="SourceAlpha" type="matrix" values="0 0 0 0 0 0 0 0 0 0 0 0 0 0 0 0 0 0 127 0" result="hardAlpha"/>
<feOffset dx="-2" dy="7"/>
<feGaussianBlur stdDeviation="3.25"/>
<feComposite in2="hardAlpha" operator="out"/>
<feColorMatrix type="matrix" values="0 0 0 0 0 0 0 0 0 0 0 0 0 0 0 0 0 0 0.25 0"/>
<feBlend mode="normal" in2="BackgroundImageFix" result="effect1_dropShadow_286_3"/>
<feBlend mode="normal" in="SourceGraphic" in2="effect1_dropShadow_286_3" result="shape"/>
</filter>
</defs>
</svg>
